<svg xmlns="http://www.w3.org/2000/svg" width="16" height="16" viewBox="0 0 16 16" fill="none">
  <g clip-path="url(#clip0_431_328)">
    <path fill-rule="evenodd" clip-rule="evenodd" d="M0.5 8C0.5 3.85786 3.85786 0.5 8 0.5C12.1421 0.5 15.5 3.85786 15.5 8C15.5 12.1421 12.1421 15.5 8 15.5C3.85786 15.5 0.5 12.1421 0.5 8ZM7.25 8.25L7.25 5.25C7.25 4.83579 7.58579 4.5 8 4.5C8.41421 4.5 8.75 4.83579 8.75 5.25V8.25C8.75 8.66421 8.41421 9 8 9C7.58579 9 7.25 8.66421 7.25 8.25ZM8 11.5C8.41421 11.5 8.75 11.1642 8.75 10.75C8.75 10.3358 8.41421 10 8 10C7.58579 10 7.25 10.3358 7.25 10.75C7.25 11.1642 7.58579 11.5 8 11.5Z" fill="#D5351F"/>
  </g>
  <defs>
    <clipPath id="clip0_431_328">
      <rect width="16" height="16" fill="white"/>
    </clipPath>
  </defs>
</svg>