<svg xmlns="http://www.w3.org/2000/svg" width="21" height="20" viewBox="0 0 21 20" fill="none">
  <path d="M12.375 3.125C12.375 4.16053 11.5355 5 10.5 5C9.46447 5 8.625 4.16053 8.625 3.125C8.625 2.08947 9.46447 1.25 10.5 1.25C11.5355 1.25 12.375 2.08947 12.375 3.125Z" fill="currentColor"/>
  <path d="M12.375 10C12.375 11.0355 11.5355 11.875 10.5 11.875C9.46447 11.875 8.625 11.0355 8.625 10C8.625 8.96447 9.46447 8.125 10.5 8.125C11.5355 8.125 12.375 8.96447 12.375 10Z" fill="currentColor"/>
  <path d="M10.5 18.75C11.5355 18.75 12.375 17.9105 12.375 16.875C12.375 15.8395 11.5355 15 10.5 15C9.46447 15 8.625 15.8395 8.625 16.875C8.625 17.9105 9.46447 18.75 10.5 18.75Z" fill="currentColor"/>
</svg>