<svg xmlns="http://www.w3.org/2000/svg" width="18" height="18" viewBox="0 0 18 18" fill="none">
  <g clip-path="url(#clip0_338_7254)">
    <path d="M7.875 6.04688C7.875 5.50322 8.31572 5.0625 8.85938 5.0625C9.40303 5.0625 9.84375 5.50322 9.84375 6.04688C9.84375 6.59053 9.40303 7.03125 8.85938 7.03125C8.31572 7.03125 7.875 6.59053 7.875 6.04688Z" fill="currentColor"/>
    <path d="M7.875 9.5625H8.15625L8.15625 11.5312H7.3125C6.84651 11.5312 6.46875 11.909 6.46875 12.375C6.46875 12.841 6.84651 13.2188 7.3125 13.2188H10.6875C11.1535 13.2188 11.5312 12.841 11.5312 12.375C11.5312 11.909 11.1535 11.5312 10.6875 11.5312H9.84375V8.71875C9.84375 8.49497 9.75486 8.28036 9.59662 8.12213C9.43839 7.96389 9.22378 7.875 9 7.875H7.875C7.40901 7.875 7.03125 8.25276 7.03125 8.71875C7.03125 9.18474 7.40901 9.5625 7.875 9.5625Z" fill="currentColor"/>
    <path fill-rule="evenodd" clip-rule="evenodd" d="M9 0.5625C4.3401 0.5625 0.5625 4.3401 0.5625 9C0.5625 13.6599 4.3401 17.4375 9 17.4375C13.6599 17.4375 17.4375 13.6599 17.4375 9C17.4375 4.3401 13.6599 0.5625 9 0.5625ZM2.25 9C2.25 12.7279 5.27208 15.75 9 15.75C12.7279 15.75 15.75 12.7279 15.75 9C15.75 5.27208 12.7279 2.25 9 2.25C5.27208 2.25 2.25 5.27208 2.25 9Z" fill="currentColor"/>
  </g>
  <defs>
    <clipPath id="clip0_338_7254">
      <rect width="18" height="18" fill="white"/>
    </clipPath>
  </defs>
</svg>