<svg xmlns="http://www.w3.org/2000/svg" width="16" height="16" viewBox="0 0 16 16" fill="none">
  <path d="M1.5 4C2.05228 4 2.5 3.55228 2.5 3C2.5 2.44772 2.05228 2 1.5 2C0.947715 2 0.5 2.44772 0.5 3C0.5 3.55228 0.947715 4 1.5 4Z" fill="#6C6C72"/>
  <path d="M4.75 2.25C4.33579 2.25 4 2.58579 4 3C4 3.41421 4.33579 3.75 4.75 3.75H14.75C15.1642 3.75 15.5 3.41421 15.5 3C15.5 2.58579 15.1642 2.25 14.75 2.25H4.75Z" fill="#6C6C72"/>
  <path d="M2.5 8C2.5 8.55228 2.05228 9 1.5 9C0.947715 9 0.5 8.55228 0.5 8C0.5 7.44772 0.947715 7 1.5 7C2.05228 7 2.5 7.44772 2.5 8Z" fill="#6C6C72"/>
  <path d="M4.75 7.25C4.33579 7.25 4 7.58579 4 8C4 8.41421 4.33579 8.75 4.75 8.75H14.75C15.1642 8.75 15.5 8.41421 15.5 8C15.5 7.58579 15.1642 7.25 14.75 7.25H4.75Z" fill="#6C6C72"/>
  <path d="M2.5 13C2.5 13.5523 2.05228 14 1.5 14C0.947715 14 0.5 13.5523 0.5 13C0.5 12.4477 0.947715 12 1.5 12C2.05228 12 2.5 12.4477 2.5 13Z" fill="#6C6C72"/>
  <path d="M4.75 12.25C4.33579 12.25 4 12.5858 4 13C4 13.4142 4.33579 13.75 4.75 13.75H14.75C15.1642 13.75 15.5 13.4142 15.5 13C15.5 12.5858 15.1642 12.25 14.75 12.25H4.75Z" fill="#6C6C72"/>
</svg>