<svg width="20" height="20" viewBox="0 0 20 20" fill="none" xmlns="http://www.w3.org/2000/svg">
<path fill-rule="evenodd" clip-rule="evenodd" d="M8.93306 9.11612C8.4449 9.60427 8.4449 10.3957 8.93306 10.8839L14.0246 15.9754C14.3907 16.3415 14.9843 16.3415 15.3504 15.9754C15.7165 15.6093 15.7165 15.0157 15.3504 14.6496L10.7008 10L15.3504 5.35041C15.7165 4.9843 15.7165 4.3907 15.3504 4.02459C14.9843 3.65847 14.3907 3.65847 14.0246 4.02459L8.93306 9.11612Z" fill="currentColor"/>
<path fill-rule="evenodd" clip-rule="evenodd" d="M6.25 4.0625C5.73223 4.0625 5.3125 4.48223 5.3125 5V15C5.3125 15.5178 5.73223 15.9375 6.25 15.9375C6.76777 15.9375 7.1875 15.5178 7.1875 15V5C7.1875 4.48223 6.76777 4.0625 6.25 4.0625Z" fill="currentColor"/>
</svg>
