<svg xmlns="http://www.w3.org/2000/svg" width="20" height="20" viewBox="0 0 20 20" fill="none">
  <path fill-rule="evenodd" clip-rule="evenodd" d="M10.7544 9.11612C11.2426 9.60427 11.2426 10.3957 10.7544 10.8839L5.66291 15.9754C5.2968 16.3415 4.7032 16.3415 4.33709 15.9754C3.97097 15.6093 3.97097 15.0157 4.33709 14.6496L8.98668 10L4.33709 5.35041C3.97097 4.9843 3.97097 4.3907 4.33709 4.02459C4.7032 3.65847 5.2968 3.65847 5.66291 4.02459L10.7544 9.11612Z" fill="currentColor"/>
  <path fill-rule="evenodd" clip-rule="evenodd" d="M14.0625 4.0625C14.5803 4.0625 15 4.48223 15 5V15C15 15.5178 14.5803 15.9375 14.0625 15.9375C13.5447 15.9375 13.125 15.5178 13.125 15V5C13.125 4.48223 13.5447 4.0625 14.0625 4.0625Z" fill="currentColor"/>
</svg>