<svg xmlns="http://www.w3.org/2000/svg" width="16" height="16" viewBox="0 0 16 16" fill="none">
  <g clip-path="url(#clip0_1331_1906)">
    <path fill-rule="evenodd" clip-rule="evenodd" d="M2.10129 10.1485C1.84442 10.4054 1.66236 10.7273 1.57466 11.0799L0.664898 14.7367C0.573893 15.1025 0.905016 15.4337 1.27082 15.3427L4.92771 14.4329C5.28023 14.3452 5.60221 14.1631 5.85908 13.9063L14.7704 4.99496C15.4538 4.31155 15.4538 3.20351 14.7704 2.52009L13.4875 1.23717C12.8041 0.553755 11.696 0.553755 11.0126 1.23717L2.10129 10.1485ZM12.4268 2.29783L13.7097 3.58075C13.8074 3.67838 13.8074 3.83667 13.7097 3.9343L12.1036 5.54039L10.4672 3.90392L12.0733 2.29783C12.1709 2.2002 12.3292 2.2002 12.4268 2.29783ZM9.40652 4.96458L11.043 6.60105L4.79842 12.8456C4.7342 12.9098 4.65371 12.9553 4.56558 12.9773L2.52185 13.4857L3.03029 11.442C3.05222 11.3539 3.09773 11.2734 3.16195 11.2091L9.40652 4.96458Z" fill="currentColor"/>
  </g>
  <defs>
    <clipPath id="clip0_1331_1906">
      <rect width="16" height="16" fill="white"/>
    </clipPath>
  </defs>
</svg>