<svg width="42" height="42" viewBox="0 0 42 42" fill="none" xmlns="http://www.w3.org/2000/svg">
<path d="M15.75 18.375L19.25 21.875L27.125 14M35 36.75V13.65C35 10.7097 35 9.23959 34.4278 8.11655C33.9245 7.1287 33.1213 6.32555 32.1335 5.82222C31.0104 5.25 29.5403 5.25 26.6 5.25H15.4C12.4597 5.25 10.9896 5.25 9.86655 5.82222C8.8787 6.32555 8.07555 7.1287 7.57222 8.11655C7 9.23959 7 10.7097 7 13.65V36.75L11.8125 33.25L16.1875 36.75L21 33.25L25.8125 36.75L30.1875 33.25L35 36.75Z" stroke="currentColor" stroke-width="3" stroke-linecap="round" stroke-linejoin="round"/>
</svg>
