<svg xmlns="http://www.w3.org/2000/svg" width="18" height="18" viewBox="0 0 18 18" fill="none">
  <g clip-path="url(#clip0_338_7282)">
    <path fill-rule="evenodd" clip-rule="evenodd" d="M9 0.5625C4.3401 0.5625 0.5625 4.3401 0.5625 9C0.5625 13.6599 4.3401 17.4375 9 17.4375C13.6599 17.4375 17.4375 13.6599 17.4375 9C17.4375 4.3401 13.6599 0.5625 9 0.5625ZM6.17835 8.87934L7.91827 10.6193L12.3842 6.15338C12.7137 5.82387 13.2479 5.82387 13.5774 6.15338C13.9069 6.48288 13.9069 7.01712 13.5774 7.34662L8.71377 12.2102C8.27443 12.6496 7.56212 12.6496 7.12278 12.2102L4.98511 10.0726C4.6556 9.74308 4.6556 9.20885 4.98511 8.87934C5.31461 8.54984 5.84885 8.54983 6.17835 8.87934Z" fill="currentColor"/>
  </g>
  <defs>
    <clipPath id="clip0_338_7282">
      <rect width="18" height="18" fill="white"/>
    </clipPath>
  </defs>
</svg>