<svg xmlns="http://www.w3.org/2000/svg" width="16" height="16" viewBox="0 0 16 16" fill="none">
  <path fill-rule="evenodd" clip-rule="evenodd" d="M8 0.5C6.48122 0.5 5.25 1.73122 5.25 3.25H2.75C2.33579 3.25 2 3.58579 2 4C2 4.41421 2.33579 4.75 2.75 4.75H13.25C13.6642 4.75 14 4.41421 14 4C14 3.58579 13.6642 3.25 13.25 3.25H10.75C10.75 1.73122 9.51878 0.5 8 0.5ZM9.25 3.25C9.25 2.55964 8.69036 2 8 2C7.30964 2 6.75 2.55964 6.75 3.25H9.25Z" fill="currentColor"/>
  <path d="M3.65125 6.00649C4.06186 5.95196 4.43893 6.24061 4.49347 6.65122L5.44064 13.7829C5.45714 13.9071 5.56311 14 5.68846 14H10.3115C10.4369 14 10.5428 13.9071 10.5594 13.7829L11.5065 6.65122C11.5611 6.24061 11.9381 5.95196 12.3487 6.00649C12.7593 6.06103 13.048 6.4381 12.9935 6.84871L12.0463 13.9804C11.9308 14.8502 11.189 15.5 10.3115 15.5H5.68846C4.81102 15.5 4.06922 14.8502 3.9537 13.9804L3.00652 6.84871C2.95199 6.4381 3.24064 6.06103 3.65125 6.00649Z" fill="currentColor"/>
</svg>