<svg width="38" height="38" viewBox="0 0 38 38" fill="none" xmlns="http://www.w3.org/2000/svg">
<g opacity="0.3">
<path d="M19 6C26.1797 6 32 11.8203 32 19C32 26.1797 26.1797 32 19 32C11.8203 32 6 26.1797 6 19C6 11.8203 11.8203 6 19 6Z" stroke="#535862" stroke-width="2"/>
</g>
<g opacity="0.1">
<path d="M19 1C28.9411 1 37 9.05887 37 19C37 28.9411 28.9411 37 19 37C9.05887 37 1 28.9411 1 19C1 9.05887 9.05887 1 19 1Z" stroke="#535862" stroke-width="2"/>
</g>
<g clip-path="url(#clip0_7853_3939)">
<path d="M18.9998 14V19L22.3332 20.6666M27.3332 19C27.3332 23.6023 23.6022 27.3333 18.9998 27.3333C14.3975 27.3333 10.6665 23.6023 10.6665 19C10.6665 14.3976 14.3975 10.6666 18.9998 10.6666C23.6022 10.6666 27.3332 14.3976 27.3332 19Z" stroke="#535862" stroke-width="1.66667" stroke-linecap="round" stroke-linejoin="round"/>
</g>
<defs>
<clipPath id="clip0_7853_3939">
<rect width="20" height="20" fill="white" transform="translate(9 9)"/>
</clipPath>
</defs>
</svg>
