<svg xmlns="http://www.w3.org/2000/svg" width="18" height="18" viewBox="0 0 18 18" fill="none">
  <path d="M9.00027 10.9688C9.46626 10.9688 9.84402 10.591 9.84402 10.125V6.75C9.84402 6.28401 9.46626 5.90625 9.00027 5.90625C8.53428 5.90625 8.15652 6.28401 8.15652 6.75L8.15652 10.125C8.15652 10.591 8.53428 10.9688 9.00027 10.9688Z" fill="currentColor"/>
  <path d="M9.00027 13.7812C9.46626 13.7812 9.84402 13.4035 9.84402 12.9375C9.84402 12.4715 9.46626 12.0938 9.00027 12.0938C8.53428 12.0938 8.15652 12.4715 8.15652 12.9375C8.15652 13.4035 8.53428 13.7812 9.00027 13.7812Z" fill="currentColor"/>
  <path fill-rule="evenodd" clip-rule="evenodd" d="M17.2816 12.6563L11.436 2.53125C10.3534 0.656252 7.6471 0.656249 6.56456 2.53125L0.71889 12.6562C-0.363641 14.5312 0.98952 16.875 3.15459 16.875H14.8459C17.011 16.875 18.3642 14.5313 17.2816 12.6563ZM8.02598 3.375C8.45899 2.625 9.54152 2.625 9.97454 3.375L15.8202 13.5C16.2532 14.25 15.712 15.1875 14.8459 15.1875H3.15459C2.28856 15.1875 1.7473 14.25 2.18031 13.5L8.02598 3.375Z" fill="currentColor"/>
</svg>